<svg width="610" height="32" viewBox="0 0 610 32" fill="none" xmlns="http://www.w3.org/2000/svg">
<g id="horizontal ruler">
<g id="secondSet">
<line id="Line 47" x1="260.204" y1="9.33337" x2="260.204" y2="22.6667" stroke="black"/>
<line id="Line 48" x1="245.271" y1="9.33337" x2="245.271" y2="22.6667" stroke="black"/>
<line id="Line 86" x1="170.606" y1="9.33337" x2="170.606" y2="22.6667" stroke="black"/>
<line id="Line 87" x1="185.539" y1="9.33337" x2="185.539" y2="22.6667" stroke="black"/>
<line id="Line 88" x1="200.472" y1="9.33337" x2="200.472" y2="22.6667" stroke="black"/>
<line id="Line 89" x1="215.405" y1="9.33337" x2="215.405" y2="22.6667" stroke="black"/>
<line id="Line 53" x1="290.07" y1="9.33337" x2="290.07" y2="22.6667" stroke="black"/>
<line id="Line 54" x1="275.137" y1="9.33337" x2="275.137" y2="22.6667" stroke="black"/>
<line id="Line 55" x1="230.338" y1="-4.23886e-08" x2="230.338" y2="32" stroke="black"/>
</g>
<g id="forthSet">
<line id="Line 60" x1="558.863" y1="9.33331" x2="558.863" y2="22.6667" stroke="black"/>
<line id="Line 97" x1="484.199" y1="9.33331" x2="484.199" y2="22.6667" stroke="black"/>
<line id="Line 61" x1="543.93" y1="9.33331" x2="543.93" y2="22.6667" stroke="black"/>
<line id="Line 98" x1="469.266" y1="9.33331" x2="469.266" y2="22.6667" stroke="black"/>
<line id="Line 66" x1="588.729" y1="9.33331" x2="588.729" y2="22.6667" stroke="black"/>
<line id="Line 99" x1="514.064" y1="9.33331" x2="514.064" y2="22.6667" stroke="black"/>
<line id="Line 67" x1="573.796" y1="9.33331" x2="573.796" y2="22.6667" stroke="black"/>
<line id="Line 100" x1="499.132" y1="9.33331" x2="499.132" y2="22.6667" stroke="black"/>
<line id="Line 68" x1="528.997" y1="-6.10775e-05" x2="528.997" y2="32" stroke="black"/>
</g>
<g id="thirdSet">
<line id="Line 91" x1="409.534" y1="9.33337" x2="409.534" y2="22.6667" stroke="black"/>
<line id="Line 92" x1="394.601" y1="9.33337" x2="394.601" y2="22.6667" stroke="black"/>
<line id="Line 49" x1="319.936" y1="9.33337" x2="319.936" y2="22.6667" stroke="black"/>
<line id="Line 50" x1="334.869" y1="9.33337" x2="334.869" y2="22.6667" stroke="black"/>
<line id="Line 51" x1="349.802" y1="9.33337" x2="349.802" y2="22.6667" stroke="black"/>
<line id="Line 52" x1="364.735" y1="9.33337" x2="364.735" y2="22.6667" stroke="black"/>
<line id="Line 93" x1="439.4" y1="9.33331" x2="439.4" y2="22.6667" stroke="black"/>
<line id="Line 94" x1="424.467" y1="9.33337" x2="424.467" y2="22.6667" stroke="black"/>
<line id="Line 56" x1="379.668" y1="-4.23886e-08" x2="379.668" y2="32" stroke="black"/>
</g>
<g id="firstSet">
<line id="Line 32" x1="36.2095" y1="9.33337" x2="36.2095" y2="22.6667" stroke="black"/>
<line id="Line 37" x1="21.2765" y1="9.33337" x2="21.2765" y2="22.6667" stroke="black"/>
<line id="Line 42" x1="95.9413" y1="9.33337" x2="95.9413" y2="22.6667" stroke="black"/>
<line id="Line 43" x1="110.874" y1="9.33337" x2="110.874" y2="22.6667" stroke="black"/>
<line id="Line 44" x1="125.807" y1="9.33337" x2="125.807" y2="22.6667" stroke="black"/>
<line id="Line 45" x1="140.74" y1="9.33337" x2="140.74" y2="22.6667" stroke="black"/>
<line id="Line 38" x1="66.0754" y1="9.33337" x2="66.0754" y2="22.6667" stroke="black"/>
<line id="Line 39" x1="51.1424" y1="9.33337" x2="51.1424" y2="22.6667" stroke="black"/>
<line id="Line 41" x1="81.0084" y1="-4.23886e-08" x2="81.0084" y2="32" stroke="black"/>
</g>
<g id="firstIndicator">
<line id="Line 33" x1="6.34351" y1="-4.23886e-08" x2="6.34351" y2="32" stroke="black"/>
<path id="Ellipse 28" d="M11.1869 16C11.1869 19.0501 8.78217 21.5 5.84352 21.5C2.90486 21.5 0.500184 19.0501 0.500183 16C0.500183 12.9499 2.90486 10.5 5.84352 10.5C8.78217 10.5 11.1869 12.9499 11.1869 16Z" fill="white" stroke="black"/>
<ellipse id="firstIndicatorPoint" cx="5.84349" cy="16" rx="3.89556" ry="4" fill="black"/>
</g>
<g id="secondIndicator">
<line id="Line 46" x1="155.5" y1="-4.23886e-08" x2="155.5" y2="32" stroke="black"/>
<path id="Ellipse 30" d="M161.187 16C161.187 19.0501 158.782 21.5 155.843 21.5C152.905 21.5 150.5 19.0501 150.5 16C150.5 12.9499 152.905 10.5 155.843 10.5C158.782 10.5 161.187 12.9499 161.187 16Z" fill="white" stroke="black"/>
<ellipse id="scondIndicatorPoint" cx="155.896" cy="16" rx="3.89556" ry="4" fill="black"/>
</g>
<g id="thirdIndicator">
<line id="Line 57" x1="305.003" y1="-4.23886e-08" x2="305.003" y2="32" stroke="black"/>
<path id="Ellipse 32" d="M310.187 16C310.187 19.0501 307.782 21.5 304.843 21.5C301.905 21.5 299.5 19.0501 299.5 16C299.5 12.9499 301.905 10.5 304.843 10.5C307.782 10.5 310.187 12.9499 310.187 16Z" fill="white" stroke="black"/>
<ellipse id="thirdIndicatorPoint" cx="304.896" cy="16" rx="3.89556" ry="4" fill="black"/>
</g>
<g id="forthIndicator">
<line id="Line 95" x1="454.333" y1="-6.10775e-05" x2="454.333" y2="32" stroke="black"/>
<path id="Ellipse 34" d="M459.176 15.9999C459.176 19.0501 456.771 21.4999 453.833 21.4999C450.894 21.4999 448.489 19.0501 448.489 15.9999C448.489 12.9498 450.894 10.4999 453.833 10.4999C456.771 10.4999 459.176 12.9498 459.176 15.9999Z" fill="white" stroke="black"/>
<ellipse id="forthIndicatorPoint" cx="453.896" cy="16" rx="3.89556" ry="4" fill="black"/>
</g>
<g id="fithIndicator">
<line id="Line 70" x1="603.662" y1="-6.10775e-05" x2="603.662" y2="32" stroke="black"/>
<path id="Ellipse 36" d="M609.187 16C609.187 19.0501 606.782 21.5 603.843 21.5C600.905 21.5 598.5 19.0501 598.5 16C598.5 12.9499 600.905 10.5 603.843 10.5C606.782 10.5 609.187 12.9499 609.187 16Z" fill="white" stroke="black"/>
<ellipse id="fithIndicatorPoint" cx="603.896" cy="16" rx="3.89556" ry="4" fill="black"/>
</g>
</g>
</svg>
